#!OML:ASF G:\JayActor3\Patient Classification 1\Patient 1\Session 5\male.ASF
:FULLY-SPECIFIED
:DEGREES
865
root -33.8278 17.7746 -4.82717 -48.1561 85.0353 -63.384
lowerback 22.9192 -1.63046 3.53988
upperback 7.41342 -0.834078 -0.311605
thorax -4.71129 -0.175498 -2.15529
lowerneck 6.03866 0.859979 2.44577
upperneck -18.1688 1.97647 1.00338
head -6.50509 0.848439 -0.2481
rclavicle -1.47101e-014 -9.93923e-015
rhumerus -26.8914 -1.42193 -89.9525
rradius 27.8722
rwrist 3.50471
rhand -21.8635 -9.20988
rfingers 7.12502
rthumb 4.54053 -39.1412
lclavicle -1.47101e-014 -9.93923e-015
lhumerus -29.9308 3.67299 84.0753
lradius 27.6742
lwrist 22.7677
lhand -19.0771 12.6237
lfingers 7.12502
lthumb 7.23069 42.4802
rfemur -33.9952 1.72137 29.3116
rtibia 43.1975
rfoot 0.0986502 -5.98625
rtoes -1.86022
lfemur -48.3158 7.93826 -20.1604
ltibia 32.7001
lfoot 9.23133 -3.38485
ltoes -10.2405
866
root -33.9605 17.8124 -4.82731 -47.791 85.2091 -63.2646
lowerback 22.912 -1.65969 3.46062
upperback 7.35265 -0.89629 -0.356062
thorax -4.77746 -0.209628 -2.1414
lowerneck 5.97133 0.857429 2.44235
upperneck -18.1728 1.97199 1.00351
head -6.49464 0.847571 -0.246759
rclavicle -8.34896e-015 -9.14409e-015
rhumerus -26.8917 -1.49705 -89.9612
rradius 27.8991
rwrist 3.39355
rhand -21.8279 -9.17895
rfingers 7.12502
rthumb 4.57493 -39.1096
lclavicle -8.34896e-015 -9.14409e-015
lhumerus -29.9573 3.60758 84.0208
lradius 27.6793
lwrist 22.8136
lhand -18.886 12.5884
lfingers 7.12502
lthumb 7.41522 42.4384
rfemur -34.5269 1.65156 29.1388
rtibia 42.7036
rfoot 0.622516 -6.26664
rtoes -1.12426
lfemur -48.782 8.01912 -20.4007
ltibia 34.8316
lfoot 8.05354 -2.655
ltoes -11.7613
867
root -34.0925 17.8499 -4.82871 -47.4533 85.4063 -63.1486
lowerback 22.9202 -1.69688 3.38703
upperback 7.2929 -0.966965 -0.407656
thorax -4.8509 -0.247574 -2.13609
lowerneck 5.91501 0.851653 2.44032
upperneck -18.1932 1.96399 1.00179
head -6.49133 0.8449 -0.246169
rclavicle -4.01545e-014 -2.66371e-014
rhumerus -26.9118 -1.5749 -89.9665
rradius 27.9424
rwrist 3.27799
rhand -21.83 -9.15544
rfingers 7.12502
rthumb 4.57288 -39.0861
lclavicle -4.01545e-014 -2.66371e-014
lhumerus -29.9857 3.56382 83.9514
lradius 27.6691
lwrist 22.8347
lhand -18.7288 12.5683
lfingers 7.12502
lthumb 7.56695 42.4129
rfemur -35.032 1.5248 28.9522
rtibia 42.2074
rfoot 1.15323 -6.56302
rtoes -0.254085
lfemur -49.1685 8.02753 -20.6132
ltibia 36.9696
lfoot 7.09651 -1.82946
ltoes -13.0586
868
root -34.224 17.8868 -4.8312 -47.1758 85.6216 -63.0678
lowerback 22.9433 -1.74179 3.31883
upperback 7.23596 -1.04545 -0.461577
thorax -4.92933 -0.288946 -2.13412
lowerneck 5.86573 0.843277 2.4362
upperneck -18.228 1.95237 0.99646
head -6.49383 0.840794 -0.246264
rclavicle 0 -3.97569e-016
rhumerus -26.9456 -1.64524 -89.9651
rradius 27.9949
rwrist 3.17372
rhand -21.8562 -9.11891
rfingers 7.12502
rthumb 4.54761 -39.0501
lclavicle 0 -3.97569e-016
lhumerus -30.0158 3.54452 83.8722
lradius 27.6495
lwrist 22.8324
lhand -18.6108 12.5679
lfingers 7.12502
lthumb 7.68086 42.4084
rfemur -35.5098 1.35582 28.7539
rtibia 41.7109
rfoot 1.69127 -6.86583
rtoes 0.682518
lfemur -49.4681 7.9614 -20.7845
ltibia 39.1029
lfoot 6.34692 -0.947754
ltoes -14.1645
869
root -34.3549 17.9223 -4.83435 -46.9728 85.8524 -63.0307
lowerback 22.9752 -1.79178 3.25048
upperback 7.18939 -1.12924 -0.51474
thorax -5.00117 -0.332084 -2.1297
lowerneck 5.82178 0.833238 2.42792
upperneck -18.2801 1.93859 0.988941
head -6.50284 0.836051 -0.246372
rclavicle 1.11319e-014 1.66979e-014
rhumerus -26.9854 -1.69312 -89.959
rradius 28.0608
rwrist 3.08482
rhand -21.8944 -9.0907
rfingers 7.12502
rthumb 4.51074 -39.0227
lclavicle 1.11319e-014 1.66979e-014
lhumerus -30.0371 3.55546 83.787
lradius 27.6218
lwrist 22.7985
lhand -18.5367 12.5845
lfingers 7.12502
lthumb 7.75231 42.4224
rfemur -35.9543 1.15746 28.5432
rtibia 41.2184
rfoot 2.23578 -7.16544
rtoes 1.60681
lfemur -49.6737 7.83231 -20.9133
ltibia 41.2083
lfoot 5.79383 -0.0641472
ltoes -14.9721
870
root -34.4851 17.956 -4.8379 -46.8664 86.0878 -63.0585
lowerback 23.0133 -1.84284 3.18551
upperback 7.15157 -1.21241 -0.563635
thorax -5.06652 -0.374259 -2.12263
lowerneck 5.78855 0.821312 2.41816
upperneck -18.3438 1.92227 0.978424
head -6.5174 0.830265 -0.247154
rclavicle 1.03368e-014 -1.03368e-014
rhumerus -27.0354 -1.7119 -89.9464
rradius 28.1345
rwrist 3.01288
rhand -21.937 -9.06889
rfingers 7.12502
rthumb 4.46965 -39.0017
lclavicle 1.03368e-014 -1.03368e-014
lhumerus -30.0539 3.58978 83.7019
lradius 27.5888
lwrist 22.7384
lhand -18.5162 12.612
lfingers 7.12502
lthumb 7.77215 42.4492
rfemur -36.3647 0.946304 28.3271
rtibia 40.7326
rfoot 2.78441 -7.45826
rtoes 2.50256
lfemur -49.7791 7.66122 -20.9942
ltibia 43.2687
lfoot 5.4229 0.753942
ltoes -15.4323
871
root -34.6145 17.9869 -4.8416 -46.7481 86.3154 -63.0463
lowerback 23.0549 -1.88848 3.12228
upperback 7.11698 -1.2876 -0.608087
thorax -5.12955 -0.412302 -2.11377
lowerneck 5.77224 0.807377 2.40797
upperneck -18.411 1.90351 0.96809
head -6.5361 0.823065 -0.247761
rclavicle 0 1.66979e-014
rhumerus -27.099 -1.7083 -89.929
rradius 28.2075
rwrist 2.96056
rhand -21.9727 -9.05747
rfingers 7.12502
rthumb 4.43517 -38.991
lclavicle 0 1.66979e-014
lhumerus -30.0815 3.63088 83.6193
lradius 27.5617
lwrist 22.6717
lhand -18.5444 12.6533
lfingers 7.12502
lthumb 7.74495 42.4915
rfemur -36.7446 0.74276 28.1097
rtibia 40.2552
rfoot 3.32977 -7.74502
rtoes 3.3971
lfemur -49.7843 7.47815 -21.0353
ltibia 45.2621
lfoot 5.21007 1.44717
ltoes -15.4965
872
root -34.7429 18.0148 -4.84532 -46.6044 86.5273 -62.9837
lowerback 23.0827 -1.92803 3.0543
upperback 7.09454 -1.35515 -0.640473
thorax -5.1715 -0.445924 -2.09129
lowerneck 5.75301 0.797546 2.38692
upperneck -18.4719 1.88833 0.956193
head -6.55227 0.818499 -0.247254
rclavicle 1.19271e-014 -2.34566e-014
rhumerus -27.1532 -1.66928 -89.9008
rradius 28.2636
rwrist 2.92408
rhand -21.9944 -9.05483
rfingers 7.12502
rthumb 4.41421 -38.9888
lclavicle 1.19271e-014 -2.34566e-014
lhumerus -30.1035 3.69301 83.5478
lradius 27.5402
lwrist 22.6023
lhand -18.6229 12.6952
lfingers 7.12502
lthumb 7.66915 42.5361
rfemur -37.0935 0.555096 27.8977
rtibia 39.7826
rfoot 3.86822 -8.02241
rtoes 4.29037
lfemur -49.6847 7.29661 -21.0333
ltibia 47.1744
lfoot 5.11749 1.97364
ltoes -15.1682
873
root -34.8698 18.0399 -4.84907 -46.3323 86.7191 -62.7644
lowerback 23.1011 -1.95386 2.99125
upperback 7.07428 -1.40418 -0.669279
thorax -5.20518 -0.470439 -2.07283
lowerneck 5.7606 0.783974 2.37007
upperneck -18.5218 1.86888 0.948396
head -6.5697 0.810798 -0.245912
rclavicle 1.78906e-014 2.5842e-014
rhumerus -27.2191 -1.63453 -89.8626
rradius 28.2991
rwrist 2.91368
rhand -22.0027 -9.06214
rfingers 7.12502
rthumb 4.40621 -38.9963
lclavicle 1.78906e-014 2.5842e-014
lhumerus -30.1387 3.72972 83.4887
lradius 27.5233
lwrist 22.5473
lhand -18.7446 12.7212
lfingers 7.12502
lthumb 7.55166 42.5664
rfemur -37.3996 0.38634 27.6923
rtibia 39.3044
rfoot 4.39965 -8.29091
rtoes 5.22332
lfemur -49.4706 7.13606 -20.9983
ltibia 48.9874
lfoot 5.13002 2.3017
ltoes -14.5893
874
root -34.9953 18.0625 -4.85294 -46.0128 86.8828 -62.4728
lowerback 23.104 -1.97227 2.93341
upperback 7.06325 -1.44205 -0.687951
thorax -5.2201 -0.489077 -2.0496
lowerneck 5.75781 0.775986 2.35215
upperneck -18.5423 1.85505 0.939745
head -6.57587 0.806056 -0.244802
rclavicle -1.03368e-014 -1.19271e-014
rhumerus -27.2709 -1.59384 -89.8127
rradius 28.3006
rwrist 2.92669
rhand -21.996 -9.0583
rfingers 7.12502
rthumb 4.41262 -38.9923
lclavicle -1.03368e-014 -1.19271e-014
lhumerus -30.1743 3.76573 83.4425
lradius 27.5161
lwrist 22.5088
lhand -18.887 12.7482
lfingers 7.12502
lthumb 7.41418 42.5983
rfemur -37.6581 0.235548 27.5057
rtibia 38.8063
rfoot 4.92374 -8.55146
rtoes 6.19899
lfemur -49.1327 7.01168 -20.9337
ltibia 50.694
lfoot 5.22651 2.38704
ltoes -14.1489
875
root -35.1194 18.0837 -4.85725 -45.619 87.0137 -62.0843
lowerback 23.089 -1.98212 2.88865
upperback 7.0588 -1.46602 -0.698678
thorax -5.21804 -0.500696 -2.02926
lowerneck 5.76017 0.771804 2.33448
upperneck -18.5398 1.84548 0.932456
head -6.57554 0.803104 -0.243479
rclavicle -4.37326e-015 4.77083e-015
rhumerus -27.3207 -1.54594 -89.7551
rradius 28.2836
rwrist 2.94709
rhand -21.9802 -9.0555
rfingers 7.12502
rthumb 4.42786 -38.9892
lclavicle -4.37326e-015 4.77083e-015
lhumerus -30.2108 3.79249 83.4096
lradius 27.5135
lwrist 22.4841
lhand -19.0447 12.7487
lfingers 7.12502
lthumb 7.26197 42.6041
rfemur -37.8635 0.0955998 27.3446
rtibia 38.2733
rfoot 5.45095 -8.79988
rtoes 7.18913
lfemur -48.6838 6.9179 -20.8315
ltibia 52.2797
lfoot 5.40167 2.2832
ltoes -13.7866
876
root -35.2425 18.104 -4.86212 -45.3089 87.1144 -61.7623
lowerback 23.0574 -1.98718 2.86516
upperback 7.05627 -1.47932 -0.70147
thorax -5.20517 -0.507143 -2.01559
lowerneck 5.76355 0.771241 2.32247
upperneck -18.5081 1.83954 0.922886
head -6.56596 0.801598 -0.243895
rclavicle -4.37326e-015 5.1684e-015
rhumerus -27.3697 -1.49997 -89.6891
rradius 28.2461
rwrist 2.97488
rhand -21.957 -9.05818
rfingers 7.12502
rthumb 4.45028 -38.9914
lclavicle -4.37326e-015 5.1684e-015
lhumerus -30.2497 3.80961 83.389
lradius 27.5155
lwrist 22.4683
lhand -19.1889 12.7508
lfingers 7.12502
lthumb 7.12278 42.6109
rfemur -38.0189 -0.0448816 27.2159
rtibia 37.6984
rfoot 5.98782 -9.03362
rtoes 8.14717
lfemur -48.1311 6.84351 -20.6886
ltibia 53.7411
lfoot 5.64647 2.03968
ltoes -13.5206
877
root -35.3648 18.1233 -4.86758 -45.0951 87.1907 -61.5206
lowerback 23.0068 -1.9889 2.85841
upperback 7.05946 -1.48467 -0.696374
thorax -5.17616 -0.509505 -2.00538
lowerneck 5.76092 0.774253 2.31519
upperneck -18.4505 1.83644 0.907043
head -6.54691 0.801643 -0.247091
rclavicle -3.97569e-015 -2.14687e-014
rhumerus -27.4024 -1.47399 -89.6099
rradius 28.1763
rwrist 3.01902
rhand -21.9319 -9.05289
rfingers 7.12502
rthumb 4.47451 -38.9856
lclavicle -3.97569e-015 -2.14687e-014
lhumerus -30.2851 3.82473 83.3802
lradius 27.5272
lwrist 22.453
lhand -19.3085 12.7582
lfingers 7.12502
lthumb 7.00739 42.6223
rfemur -38.127 -0.189657 27.1163
rtibia 37.0825
rfoot 6.53013 -9.25716
rtoes 9.07161
lfemur -47.4824 6.78486 -20.5141
ltibia 55.0737
lfoot 5.96086 1.6878
ltoes -13.5062
878
root -35.4863 18.1413 -4.87388 -44.9551 87.2526 -61.3334
lowerback 22.9402 -1.98755 2.8713
upperback 7.06655 -1.48224 -0.690405
thorax -5.13475 -0.507902 -2.00777
lowerneck 5.76578 0.776337 2.32126
upperneck -18.3777 1.83169 0.884069
head -6.52419 0.800364 -0.2546
rclavicle -4.77083e-015 1.27222e-014
rhumerus -27.4406 -1.45432 -89.5269
rradius 28.1043
rwrist 3.05509
rhand -21.9124 -9.06351
rfingers 7.12502
rthumb 4.49337 -38.9958
lclavicle -4.77083e-015 1.27222e-014
lhumerus -30.3215 3.82718 83.38
lradius 27.5484
lwrist 22.4351
lhand -19.3908 12.7555
lfingers 7.12502
lthumb 6.92791 42.6222
rfemur -38.1893 -0.354871 27.0393
rtibia 36.4364
rfoot 7.07172 -9.46527
rtoes 9.98028
lfemur -46.7377 6.73567 -20.3223
ltibia 56.2786
lfoot 6.34344 1.26357
ltoes -13.9629
879
root -35.607 18.1575 -4.88113 -44.633 87.3071 -60.9465
lowerback 22.8688 -1.98417 2.88843
upperback 7.07434 -1.47667 -0.68649
thorax -5.09014 -0.504745 -2.01571
lowerneck 5.76414 0.779458 2.33026
upperneck -18.2849 1.8273 0.859678
head -6.49392 0.799196 -0.262886
rclavicle 7.95139e-015 1.07344e-014
rhumerus -27.4692 -1.46 -89.4361
rradius 28.0044
rwrist 3.10431
rhand -21.9035 -9.06378
rfingers 7.12502
rthumb 4.50197 -38.9959
lclavicle 7.95139e-015 1.07344e-014
lhumerus -30.3632 3.83381 83.3832
lradius 27.5822
lwrist 22.4135
lhand -19.425 12.7561
lfingers 7.12502
lthumb 6.8949 42.6238
rfemur -38.2197 -0.539923 26.9713
rtibia 35.777
rfoot 7.61572 -9.65104
rtoes 10.8408
lfemur -45.908 6.69761 -20.1333
ltibia 57.3597
lfoot 6.77948 0.789135
ltoes -14.7351
